<?xml version="1.0" encoding="UTF-8"?>
<svg version="1.1" xmlns="http://www.w3.org/2000/svg" width="510" height="510">
<path d="M0 0 C2.95601788 0.00916758 5.91124411 0.00230191 8.8671875 -0.02050781 C27.02188551 -0.15971999 44.43629543 0.52782978 62.25952148 4.44604492 C62.94458771 4.59324982 63.62965393 4.74045471 64.33547974 4.89212036 C68.07493889 5.71059771 71.76297005 6.65824903 75.44702148 7.69604492 C76.52250244 7.99414062 77.5979834 8.29223633 78.70605469 8.59936523 C110.34679099 17.60683817 140.84594181 32.42208355 166.25952148 53.44604492 C166.77933594 53.8657959 167.29915039 54.28554688 167.8347168 54.71801758 C183.3963646 67.30147179 198.32794406 81.56665045 210.0769043 97.81469727 C211.28082665 99.47543409 212.51369298 101.11139258 213.75170898 102.74682617 C234.74467319 130.84497569 248.26424032 163.49171649 256.25952148 197.44604492 C256.4216447 198.07216864 256.58376791 198.69829235 256.75080395 199.34338951 C258.15651663 205.07256273 258.56671213 210.45748119 258.58178711 216.3425293 C258.59171692 217.28879684 258.60164673 218.23506439 258.61187744 219.21000671 C258.64091526 222.31996674 258.65469876 225.42972193 258.66577148 228.53979492 C258.67425362 230.15204201 258.67425362 230.15204201 258.6829071 231.79685974 C258.71282797 237.49910447 258.73131982 243.20124906 258.73999023 248.90356445 C258.75087391 254.72038605 258.79876223 260.53625094 258.85593414 266.35277557 C258.89368705 270.88660091 258.9036247 275.42020881 258.90666199 279.95417786 C258.91261702 282.09386858 258.92833009 284.23356026 258.95503235 286.37309265 C259.57532727 339.9534283 231.98985722 393.09965533 196.51342773 431.96948242 C194.98530189 433.64856698 193.47266291 435.34185315 191.97436523 437.04760742 C187.97950857 441.58379114 183.94708875 445.80307905 179.31811523 449.69213867 C177.90320165 450.89763431 176.52141235 452.14276476 175.16967773 453.41870117 C161.82064173 465.99189576 146.32227978 475.73715049 130.25952148 484.44604492 C129.27532227 484.98455078 129.27532227 484.98455078 128.27124023 485.53393555 C109.1203452 495.90238079 88.47882566 503.62042999 67.25952148 508.44604492 C66.25249963 508.68115217 66.25249963 508.68115217 65.2251339 508.92100906 C52.55898745 511.83754615 40.56847363 513.05950685 27.59155273 513.01245117 C25.77430409 513.01771427 23.95705815 513.02400026 22.13981628 513.03123474 C18.36244703 513.0415339 14.58545686 513.03723377 10.80810547 513.02246094 C6.99264274 513.00873567 3.17818153 513.01559926 -0.63720703 513.04296875 C-21.86819235 513.19491732 -42.11679372 513.13542154 -62.74047852 507.44604492 C-63.72737671 507.18208923 -64.7142749 506.91813354 -65.7310791 506.6461792 C-93.43786226 499.18940617 -120.39935043 487.24921305 -143.74047852 470.44604492 C-144.35342773 470.00679688 -144.96637695 469.56754883 -145.59790039 469.11499023 C-153.88721075 463.14264321 -161.7352088 456.91363834 -169.15063477 449.88354492 C-171.27586491 447.88332832 -173.4358259 445.9981209 -175.67797852 444.13354492 C-187.24633241 434.02318604 -196.77189132 421.84778139 -205.74047852 409.44604492 C-206.18488281 408.83180664 -206.62928711 408.21756836 -207.0871582 407.5847168 C-246.1278982 352.90967585 -260.63004128 281.46750587 -250.2409668 215.43725586 C-239.4659926 151.03970277 -206.8349023 89.79449818 -153.41137695 50.67260742 C-151.75876597 49.45946926 -150.12823482 48.2206558 -148.49829102 46.97729492 C-119.08056953 24.88780037 -83.67846668 10.50070238 -47.74047852 3.44604492 C-45.85026978 3.04325317 -45.85026978 3.04325317 -43.921875 2.63232422 C-29.40269516 -0.22049844 -14.73241622 -0.04780579 0 0 Z " fill="#A8D8CA" transform="translate(253.740478515625,-0.446044921875)"/>
<path d="M0 0 C2.95601788 0.00916758 5.91124411 0.00230191 8.8671875 -0.02050781 C27.02188551 -0.15971999 44.43629543 0.52782978 62.25952148 4.44604492 C62.94458771 4.59324982 63.62965393 4.74045471 64.33547974 4.89212036 C68.07493889 5.71059771 71.76297005 6.65824903 75.44702148 7.69604492 C76.52250244 7.99414062 77.5979834 8.29223633 78.70605469 8.59936523 C110.34679099 17.60683817 140.84594181 32.42208355 166.25952148 53.44604492 C166.77933594 53.8657959 167.29915039 54.28554688 167.8347168 54.71801758 C183.3963646 67.30147179 198.32794406 81.56665045 210.0769043 97.81469727 C211.28082665 99.47543409 212.51369298 101.11139258 213.75170898 102.74682617 C234.74467319 130.84497569 248.26424032 163.49171649 256.25952148 197.44604492 C256.4216447 198.07216864 256.58376791 198.69829235 256.75080395 199.34338951 C258.15651663 205.07256273 258.56671213 210.45748119 258.58178711 216.3425293 C258.59171692 217.28879684 258.60164673 218.23506439 258.61187744 219.21000671 C258.64091526 222.31996674 258.65469876 225.42972193 258.66577148 228.53979492 C258.67425362 230.15204201 258.67425362 230.15204201 258.6829071 231.79685974 C258.71282797 237.49910447 258.73131982 243.20124906 258.73999023 248.90356445 C258.75087391 254.72038605 258.79876223 260.53625094 258.85593414 266.35277557 C258.89368705 270.88660091 258.9036247 275.42020881 258.90666199 279.95417786 C258.91261702 282.09386858 258.92833009 284.23356026 258.95503235 286.37309265 C259.57532727 339.9534283 231.98985722 393.09965533 196.51342773 431.96948242 C194.98530189 433.64856698 193.47266291 435.34185315 191.97436523 437.04760742 C187.97950857 441.58379114 183.94708875 445.80307905 179.31811523 449.69213867 C177.90320165 450.89763431 176.52141235 452.14276476 175.16967773 453.41870117 C161.82064173 465.99189576 146.32227978 475.73715049 130.25952148 484.44604492 C129.27532227 484.98455078 129.27532227 484.98455078 128.27124023 485.53393555 C109.1203452 495.90238079 88.47882566 503.62042999 67.25952148 508.44604492 C66.25249963 508.68115217 66.25249963 508.68115217 65.2251339 508.92100906 C52.55898745 511.83754615 40.56847363 513.05950685 27.59155273 513.01245117 C25.77430409 513.01771427 23.95705815 513.02400026 22.13981628 513.03123474 C18.36244703 513.0415339 14.58545686 513.03723377 10.80810547 513.02246094 C6.99264274 513.00873567 3.17818153 513.01559926 -0.63720703 513.04296875 C-21.86819235 513.19491732 -42.11679372 513.13542154 -62.74047852 507.44604492 C-63.72737671 507.18208923 -64.7142749 506.91813354 -65.7310791 506.6461792 C-93.43786226 499.18940617 -120.39935043 487.24921305 -143.74047852 470.44604492 C-144.35342773 470.00679688 -144.96637695 469.56754883 -145.59790039 469.11499023 C-153.88721075 463.14264321 -161.7352088 456.91363834 -169.15063477 449.88354492 C-171.27586491 447.88332832 -173.4358259 445.9981209 -175.67797852 444.13354492 C-187.24633241 434.02318604 -196.77189132 421.84778139 -205.74047852 409.44604492 C-206.18488281 408.83180664 -206.62928711 408.21756836 -207.0871582 407.5847168 C-246.1278982 352.90967585 -260.63004128 281.46750587 -250.2409668 215.43725586 C-239.4659926 151.03970277 -206.8349023 89.79449818 -153.41137695 50.67260742 C-151.75876597 49.45946926 -150.12823482 48.2206558 -148.49829102 46.97729492 C-119.08056953 24.88780037 -83.67846668 10.50070238 -47.74047852 3.44604492 C-45.85026978 3.04325317 -45.85026978 3.04325317 -43.921875 2.63232422 C-29.40269516 -0.22049844 -14.73241622 -0.04780579 0 0 Z M-157.74047852 74.44604492 C-158.28446289 74.92686523 -158.82844727 75.40768555 -159.38891602 75.90307617 C-202.43336333 114.19848822 -229.49243131 167.61405787 -237.74047852 224.44604492 C-238.00417236 226.2625354 -238.00417236 226.2625354 -238.27319336 228.11572266 C-238.85976361 232.90354923 -238.91985345 237.66219609 -238.94360352 242.48120117 C-238.95061783 243.42914551 -238.95763214 244.37708984 -238.96485901 245.35375977 C-238.98231418 248.40540334 -238.9887133 251.45685322 -238.99047852 254.50854492 C-238.99115326 255.54759979 -238.991828 256.58665466 -238.99252319 257.65719604 C-238.97721108 272.45542699 -238.77480441 286.90571817 -235.74047852 301.44604492 C-235.5582373 302.33388672 -235.37599609 303.22172852 -235.18823242 304.13647461 C-227.33145044 341.37906522 -212.16782018 377.95683654 -187.74047852 407.44604492 C-187.30912598 407.97214355 -186.87777344 408.49824219 -186.43334961 409.0402832 C-176.34734408 421.32097997 -165.79239177 433.05345306 -153.74047852 443.44604492 C-152.89227539 444.18209961 -152.04407227 444.9181543 -151.17016602 445.67651367 C-131.26503383 462.46218485 -107.58446221 477.10304178 -82.83813477 485.39916992 C-80.0624754 486.33722378 -77.38057163 487.38065695 -74.67797852 488.50854492 C-66.49300475 491.82823051 -58.06063364 494.37352882 -49.36938477 495.94995117 C-47.45215791 496.31174584 -45.54392271 496.72217318 -43.64282227 497.16088867 C-28.27770394 500.70668521 -13.00977052 501.7695499 2.73071289 501.65185547 C5.28598868 501.63335328 7.84090366 501.63134857 10.39624023 501.6315918 C23.67473836 502.62577615 23.67473836 502.62577615 35.25952148 499.44604492 C38.99318179 498.99634292 42.72575709 498.62571389 46.47045898 498.28393555 C50.80617764 497.84965754 54.22048691 497.1248461 58.25952148 495.44604492 C59.81819613 495.10527637 61.3829835 494.79202227 62.95092773 494.49682617 C68.13687643 493.51071817 73.14637066 492.16025695 78.19702148 490.63354492 C79.50678955 490.2393335 79.50678955 490.2393335 80.84301758 489.8371582 C86.3973099 488.12424877 91.66892831 486.15138995 96.89624023 483.59057617 C99.29308232 482.42979149 101.71045098 481.46009867 104.19702148 480.50854492 C127.846687 471.17610956 150.08852501 455.44204362 168.52124023 438.03198242 C171.11269384 435.58470384 173.76563033 433.23130676 176.44702148 430.88354492 C195.48720587 413.68693395 209.56316222 391.38758408 221.69702148 369.00854492 C222.58442017 367.37381226 222.58442017 367.37381226 223.48974609 365.70605469 C228.5896608 356.14435421 232.40490557 346.40016895 235.82202148 336.13354492 C236.12648193 335.22145264 236.43094238 334.30936035 236.74462891 333.36962891 C238.72357372 327.33888928 240.39231477 321.36146057 241.65405273 315.13745117 C242.25952148 312.44604492 242.25952148 312.44604492 243.23608398 309.60620117 C244.43911114 305.89151044 245.16008389 302.15958249 245.82202148 298.32104492 C245.94770508 297.6378418 246.07338867 296.95463867 246.20288086 296.25073242 C248.44325243 283.48882528 248.41719405 270.71152027 248.38989258 257.796875 C248.38446644 254.72740899 248.38989887 251.65808498 248.39624023 248.58862305 C248.39558058 246.6413571 248.39430177 244.69409124 248.39233398 242.74682617 C248.39537033 241.36736565 248.39537033 241.36736565 248.39846802 239.96003723 C248.80014912 235.8801042 248.80014912 235.8801042 247.25952148 232.44604492 C247.05706555 231.03146093 246.91266831 229.60844502 246.79467773 228.18432617 C246.71668945 227.31227539 246.63870117 226.44022461 246.55834961 225.54174805 C246.40247194 223.70599869 246.24877741 221.87006247 246.09741211 220.03393555 C245.66007018 215.18761809 244.91727659 211.04807549 243.25952148 206.44604492 C242.81219842 204.03486451 242.39813108 201.61738163 242.00952148 199.19604492 C239.65945757 185.75178665 234.82543804 172.87113512 229.25952148 160.44604492 C228.75936523 159.31295898 228.25920898 158.17987305 227.74389648 157.01245117 C221.52605969 143.16742596 214.38836801 129.59961904 205.25952148 117.44604492 C204.36655862 116.21372189 203.47473034 114.9805763 202.58374023 113.74682617 C196.79886867 105.80755569 190.71606954 98.39577071 183.94311523 91.28198242 C181.71835156 88.93092212 179.59731136 86.5423064 177.50952148 84.07104492 C174.07665182 80.12078103 170.25889122 76.80899904 166.25952148 73.44604492 C165.33526367 72.63393555 164.41100586 71.82182617 163.45874023 70.98510742 C88.61149388 5.53556095 -21.46995868 -5.51544429 -157.74047852 74.44604492 Z " fill="#A8D8CA" transform="translate(253.740478515625,-0.446044921875)"/>
<path d="M0 0 C7.00308907 5.7328116 13.30630727 12.15804679 19.6965332 18.55126953 C20.97489434 19.82663508 22.25345919 21.10179648 23.5322113 22.37677002 C26.98879731 25.82455796 30.44216714 29.27554967 33.89467645 32.72741938 C36.05253306 34.88456373 38.21110074 37.04099388 40.36992455 39.19717026 C47.90254549 46.72055555 55.43259468 54.24650376 62.96020508 61.77490234 C69.97723591 68.79253526 76.99983968 75.80455697 84.02504855 82.81400216 C90.06100788 88.83689945 96.09311934 94.86363206 102.12223119 100.89338386 C105.72151266 104.49292047 109.32233515 108.09088194 112.92702675 111.68500137 C116.31232816 115.06064298 119.69282367 118.44102355 123.06965065 121.82514191 C124.31034789 123.06688724 125.55276045 124.30692139 126.79699326 125.54512405 C128.49308285 127.23352344 130.18291319 128.9279491 131.87129211 130.62405396 C132.36651487 131.11413315 132.86173763 131.60421234 133.37196714 132.10914242 C137.39300979 136.17105067 139.28563441 139.13772887 139.375 144.875 C139.40335938 145.69742188 139.43171875 146.51984375 139.4609375 147.3671875 C138.45915442 153.0892366 134.0096588 157.24181345 130.03540039 161.22338867 C129.55516922 161.70712448 129.07493805 162.19086029 128.58015442 162.68925476 C127.00761249 164.2705257 125.42795595 165.84445371 123.84765625 167.41796875 C122.74404687 168.5229271 121.64073437 169.62818205 120.53770447 170.73371887 C118.23190349 173.04245896 115.92254821 175.34756701 113.6105957 177.65014648 C110.6537979 180.59553712 107.70608846 183.54983445 104.76097965 186.50690746 C102.48688623 188.78824081 100.20803484 191.06477336 97.92773247 193.33989906 C96.83905853 194.42724311 95.75185651 195.51606302 94.66618538 196.60640526 C93.14692065 198.13077178 91.62135189 199.64854302 90.09399414 201.16479492 C89.22891739 202.02828049 88.36384064 202.89176605 87.47254944 203.78141785 C83.58220543 207.27216617 80.42245494 209.42903761 75.125 209.4375 C74.32320313 209.45683594 73.52140625 209.47617187 72.6953125 209.49609375 C63.69719767 207.83991899 57.58528474 200.05885761 51.40625 193.875 C50.28987812 192.76574334 49.17321427 191.65678045 48.05627441 190.5480957 C45.7212773 188.22650613 43.39225654 185.8991096 41.06689453 183.56787109 C38.11187366 180.60697724 35.13908628 177.6646771 32.16095734 174.72705078 C29.84937732 172.44155445 27.54960989 170.1444388 25.25285339 167.84405518 C24.16296069 166.75583644 23.06916328 165.67151177 21.97114563 164.5914917 C10.42297648 153.21186262 0.68206074 139.23129443 -0.12304783 122.43258953 C-0.12212604 121.51540551 -0.12120424 120.59822149 -0.12025452 119.65324402 C-0.12162918 118.59460144 -0.12300385 117.53595886 -0.12442017 116.44523621 C-0.12082489 115.29437027 -0.11722961 114.14350433 -0.11352539 112.95776367 C-0.11367142 111.73783722 -0.11381744 110.51791077 -0.1139679 109.26101685 C-0.11339142 105.92461808 -0.10838293 102.58828152 -0.10139394 99.25189376 C-0.0951343 95.76186924 -0.09455453 92.27184385 -0.09336853 88.78181458 C-0.09026291 82.17689522 -0.08205989 75.57199247 -0.07201904 68.96708041 C-0.06083401 61.44594904 -0.05534143 53.92481687 -0.05032361 46.40367925 C-0.03987664 30.93577657 -0.0222921 15.46789042 0 0 Z " fill="#080405" transform="translate(196,162)"/>
<path d="M0 0 C4.77636699 3.98534941 9.2858377 8.14481945 13.66967773 12.55615234 C14.29492844 13.18125702 14.92017914 13.80636169 15.56437683 14.45040894 C17.60649851 16.49322079 19.64506673 18.53953907 21.68359375 20.5859375 C23.10826572 22.01247683 24.53316032 23.43879384 25.95826721 24.86489868 C29.69060687 28.60103845 33.41993237 32.34017262 37.14862061 36.07995605 C40.96118329 39.90278697 44.77661322 43.72275387 48.59179688 47.54296875 C56.06399371 55.02585867 63.53300678 62.51191776 71 70 C70.0438244 71.76512603 69.08618623 73.52945984 68.12792969 75.29345703 C67.32823761 76.76735397 67.32823761 76.76735397 66.51239014 78.27102661 C64.36711677 82.14198145 61.9585571 85.80578095 59.515625 89.4921875 C58.03396881 91.94379387 57.00081031 94.32227643 56 97 C53.94267848 101.31057843 51.65424641 105.47588066 49.3203125 109.640625 C48.45394173 111.18881419 47.59432142 112.74080436 46.7421875 114.296875 C44.73652757 117.95499689 42.68338847 121.54600185 40.4375 125.0625 C38.38164641 128.30046941 36.64232407 131.61022137 34.96875 135.05859375 C34.02117914 136.95755633 33.00239716 138.78966587 31.9375 140.625 C30.7123457 142.75913975 29.53800493 144.92399013 28.4375 147.125 C27 150 27 150 25.5 152.4375 C23.68719435 155.53437632 22.36596469 158.68265717 21 162 C9.1484323 152.80898831 2.347433 139.74035766 0 125 C-0.26712043 120.83221135 -0.25346684 116.67878696 -0.22705078 112.50366211 C-0.22734283 111.28315155 -0.22763489 110.06264099 -0.22793579 108.80514526 C-0.22678782 105.4854365 -0.21681332 102.16598185 -0.20278788 98.84631801 C-0.19021681 95.3669999 -0.18910502 91.88767777 -0.18673706 88.40834045 C-0.18054092 81.83186286 -0.16415558 75.2554524 -0.14403808 68.67900425 C-0.12162073 61.1868073 -0.11067103 53.69460701 -0.10064721 46.20238483 C-0.07978752 30.80155112 -0.04464815 15.40078424 0 0 Z " fill="#000303" transform="translate(196,162)"/>
<path d="M0 0 C1.16402344 0.01804688 2.32804688 0.03609375 3.52734375 0.0546875 C4.36394531 0.07789063 5.20054687 0.10109375 6.0625 0.125 C5.47818343 3.56164684 4.3589467 5.20083709 1.90513611 7.64312744 C0.89337563 8.66107391 0.89337563 8.66107391 -0.13882446 9.69958496 C-1.25552017 10.80010193 -1.25552017 10.80010193 -2.39477539 11.92285156 C-3.17520706 12.70372131 -3.95563873 13.48459106 -4.75971985 14.28912354 C-7.34448557 16.87179705 -9.93971992 19.44367867 -12.53515625 22.015625 C-14.32799923 23.8028736 -16.12018159 25.59078512 -17.91172791 27.3793335 C-22.14902982 31.60634618 -26.3929432 35.82660835 -30.64012665 40.04368377 C-35.47547415 44.8454955 -40.30230264 49.65583181 -45.12843335 54.46690416 C-55.05533678 64.3624526 -64.99289409 74.24724424 -74.9375 84.125 C-79.19276015 82.17710748 -82.10041223 79.23585999 -85.35839844 75.94702148 C-85.99296463 75.31435364 -86.62753082 74.68168579 -87.28132629 74.02984619 C-89.37475858 71.94011492 -91.46091051 69.84327735 -93.546875 67.74609375 C-94.99810945 66.29366732 -96.44971362 64.84161021 -97.90167236 63.38990784 C-100.94097502 60.34904164 -103.97688895 57.3048457 -107.01025391 54.25805664 C-110.90830802 50.34297511 -114.81295065 46.4345467 -118.71990585 42.52834988 C-121.71577961 39.53220496 -124.70904582 36.53346676 -127.70142365 33.53383064 C-129.14100995 32.09105187 -130.58121183 30.64888704 -132.02202606 29.20733452 C-134.02861329 27.19859198 -136.03188032 25.18659943 -138.03417969 23.17358398 C-138.63569351 22.57252335 -139.23720734 21.97146271 -139.85694885 21.35218811 C-143.9375 17.23947614 -143.9375 17.23947614 -143.9375 16.125 C-111.36546851 12.01621911 -78.78057111 8.145463 -46.13733387 4.65056133 C-42.89095311 4.30295983 -39.64469236 3.95424381 -36.3984375 3.60546875 C-35.18525345 3.47550003 -33.9720694 3.34553131 -32.72212219 3.21162415 C-26.50013092 2.53783962 -20.29461218 1.80794565 -14.09765625 0.93359375 C-9.33578787 0.27033351 -4.80579118 -0.09908848 0 0 Z " fill="#090506" transform="translate(427.9375,211.875)"/>
<path d="M0 0 C3.93361968 1.96680984 6.00449181 3.74583169 9.08813477 6.81347656 C9.58133209 7.30156296 10.07452942 7.78964935 10.58267212 8.29252625 C12.20744415 9.90342767 13.82470919 11.52162244 15.44140625 13.140625 C16.5717156 14.26704557 17.70224772 15.39324265 18.83299255 16.51922607 C21.20092233 18.87969873 23.56494511 21.24400371 25.92651367 23.61083984 C28.94649405 26.63660913 31.97767242 29.65087351 35.01213169 32.66211319 C37.35001158 34.9852268 39.680891 37.3152675 42.00984001 39.64733124 C43.12421 40.76118931 44.24093283 41.8726988 45.36007881 42.98175812 C46.92777382 44.53705237 48.48554775 46.1016768 50.04125977 47.66894531 C50.92854263 48.55559875 51.8158255 49.4422522 52.72999573 50.35577393 C56.0118798 54.17869335 57.83671566 57.47601279 58.375 62.5 C57.67356386 69.04673734 54.28423038 73.1576308 49.71826172 77.63818359 C48.92997482 78.42953705 48.92997482 78.42953705 48.12576294 79.23687744 C46.4008941 80.96473505 44.66557731 82.68165829 42.9296875 84.3984375 C41.7250943 85.59997103 40.52109278 86.80209801 39.31765747 88.00479126 C36.80208289 90.51577556 34.28169254 93.02178273 31.75732422 95.52392578 C28.51424057 98.73860614 25.2800108 101.96201415 22.04887199 105.18869591 C19.56677843 107.66664488 17.08186632 110.14174959 14.59589005 112.61580276 C13.4016541 113.80432635 12.20789534 114.99332962 11.01461411 116.18281174 C9.35333499 117.83725648 7.68871646 119.48825937 6.02294922 121.13818359 C5.52631775 121.6336972 5.02968628 122.12921082 4.51800537 122.63973999 C1.11469431 126 1.11469431 126 0 126 C0 84.42 0 42.84 0 0 Z " fill="#000303" transform="translate(115,163)"/>
<path d="M0 0 C0 41.58 0 83.16 0 126 C-4.26813235 122.34160084 -8.29877915 118.83048435 -12.26098633 114.90014648 C-12.73672089 114.42937683 -13.21245544 113.95860718 -13.7026062 113.47357178 C-15.24846197 111.94211873 -16.79058011 110.40697932 -18.33203125 108.87109375 C-18.86371099 108.34224138 -19.39539074 107.81338902 -19.94318199 107.26851082 C-22.74923566 104.47734956 -25.55247849 101.68340264 -28.35327148 98.88696289 C-31.23932742 96.00642015 -34.13456842 93.13529516 -37.03200245 90.26620388 C-39.26839066 88.04844351 -41.49803863 85.82399945 -43.72589684 83.59767342 C-44.79071559 82.53587432 -45.85802673 81.47656844 -46.9278965 80.41985893 C-48.42111225 78.94372909 -49.90454164 77.45838932 -51.38598633 75.97045898 C-52.23091141 75.12917953 -53.07583649 74.28790009 -53.94636536 73.42112732 C-56.91971342 69.91570621 -57.88016575 67.09848067 -58.375 62.5625 C-57.68879189 56.04352296 -53.18257699 51.93278054 -48.6965332 47.45361328 C-48.18061615 46.93579788 -47.6646991 46.41798248 -47.13314819 45.88447571 C-45.44385742 44.19151014 -43.74752959 42.50580106 -42.05078125 40.8203125 C-40.87025572 39.64098009 -39.69010073 38.46127666 -38.51029968 37.28121948 C-36.04632699 34.81880561 -33.57904633 32.35977299 -31.10913086 29.90332031 C-27.93618604 26.74744863 -24.76994841 23.5849495 -21.60590839 20.42015266 C-19.1742229 17.98873825 -16.73994681 15.55993201 -14.30476952 13.13201523 C-13.13551853 11.9659544 -11.96687927 10.79927986 -10.79885292 9.63199234 C-9.17350072 8.00879528 -7.54490761 6.3889259 -5.9152832 4.77001953 C-4.98802933 3.84657745 -4.06077545 2.92313538 -3.10542297 1.97171021 C-1 0 -1 0 0 0 Z " fill="#000303" transform="translate(182,244)"/>
<path d="M0 0 C37.43181818 0 37.43181818 0 46.9296875 9.40625 C51.63481301 15.30097328 53.71441865 22.28715429 53.32421875 29.80859375 C52.14984269 37.74624397 49.01707493 44.11701729 43.1875 49.6875 C30.33779897 59.00983212 15.57624278 56 0 56 C0 37.52 0 19.04 0 0 Z " fill="#000303" transform="translate(416,319)"/>
<path d="M0 0 C5.61 0 11.22 0 17 0 C21.47924449 8.83742831 25.35061418 17.79317385 29 27 C33.51331868 18.07415636 37.93661642 9.14261305 42 0 C47.61 0 53.22 0 59 0 C59 18.48 59 36.96 59 56 C54.38 56 49.76 56 45 56 C44.67 44.12 44.34 32.24 44 20 C42.35 23.96 40.7 27.92 39 32 C38.07617794 34.08943457 37.14312898 36.17491993 36.1875 38.25 C35.76855469 39.16265625 35.34960938 40.0753125 34.91796875 41.015625 C34.61503906 41.67046875 34.31210937 42.3253125 34 43 C30.7 43 27.4 43 24 43 C22.68166286 39.93989626 21.3701761 36.87715629 20.0625 33.8125 C19.68931641 32.94818359 19.31613281 32.08386719 18.93164062 31.19335938 C18.57392578 30.35224609 18.21621094 29.51113281 17.84765625 28.64453125 C17.51773682 27.87471924 17.18781738 27.10490723 16.84790039 26.31176758 C15.95990651 23.89068666 15.44152652 21.53730576 15 19 C14.34 19 13.68 19 13 19 C13 31.21 13 43.42 13 56 C8.71 56 4.42 56 0 56 C0 37.52 0 19.04 0 0 Z " fill="#000303" transform="translate(343,319)"/>
<path d="M0 0 C13.94047619 0 13.94047619 0 19 4 C23.00213621 8.90261686 23.63709757 13.00060581 23.38671875 19.27734375 C22.62784884 24.62009456 20.80468635 28.56550572 16.5625 31.9375 C10.70970052 34.36427052 6.71706214 34 0 34 C0 22.78 0 11.56 0 0 Z " fill="#A8D8CA" transform="translate(431,330)"/>
<path d="M0 0 C0.99 0.33 1.98 0.66 3 1 C0.50548574 6.16306441 -2.31784545 11.10011131 -5.1875 16.0625 C-10.12908591 24.6605535 -14.96729567 33.31282453 -19.75 42 C-20.08192352 42.60257629 -20.41384705 43.20515259 -20.75582886 43.82598877 C-24.28551728 50.23491044 -27.80742058 56.64809081 -31.32562256 63.06332397 C-32.78173855 65.71725664 -34.23989401 68.37006562 -35.69836426 71.02270508 C-36.72515122 72.89225589 -37.7488515 74.76347375 -38.77246094 76.63476562 C-39.39926758 77.77494141 -40.02607422 78.91511719 -40.671875 80.08984375 C-41.2194043 81.08878662 -41.76693359 82.08772949 -42.33105469 83.11694336 C-44.10273985 86.17748024 -46.00965454 89.07820541 -48 92 C-49 89 -49 89 -47.875 86.4375 C-47.25625 85.303125 -46.6375 84.16875 -46 83 C-45.18349916 81.35614782 -44.37130255 79.7101535 -43.5625 78.0625 C-41.50643835 73.95037669 -39.32093237 69.96804567 -37 66 C-34.85439368 62.31223913 -32.80543425 58.64780227 -30.9375 54.8125 C-29.52821634 51.94438756 -27.94664778 49.5391058 -26 47 C-24.98152514 45.00934459 -23.98482022 43.00751815 -23 41 C-20.92178021 37.1754983 -18.78494453 33.3832117 -16.63671875 29.59765625 C-16.19972656 28.82292969 -15.76273438 28.04820312 -15.3125 27.25 C-14.91675781 26.55390625 -14.52101562 25.8578125 -14.11328125 25.140625 C-12.95018639 23.00185624 -12.95018639 23.00185624 -12.09301758 20.64282227 C-11.04344353 18.10504272 -9.84134948 15.90636719 -8.3984375 13.57421875 C-7.90859375 12.77822266 -7.41875 11.98222656 -6.9140625 11.16210938 C-6.40617187 10.34548828 -5.89828125 9.52886719 -5.375 8.6875 C-4.859375 7.85154297 -4.34375 7.01558594 -3.8125 6.15429688 C-2.54512996 4.10068801 -1.27421427 2.04936659 0 0 Z " fill="#000303" transform="translate(266,233)"/>
</svg>
