<svg width="622.6" height="178.2" viewBox="20 -25 630 230" xmlns="http://www.w3.org/2000/svg"><g id="svgGroup" stroke-linecap="round" fill-rule="evenodd" font-size="9pt" stroke="#A8D8CA" stroke-width="5mm" fill="#A8D8CA" style="stroke:#000303;stroke-width:5mm;fill:#000"><path d="M 105.2 12.4 L 54.8 12.4 L 54.8 148 L 50.4 148 L 50.4 12.4 L 0 12.4 L 0 8.4 L 105.2 8.4 L 105.2 12.4 Z" id="0" vector-effect="non-scaling-stroke"/><path d="M 182.6 64.4 L 179 66.2 A 43.847 43.847 0 0 0 174.219 59.087 A 32.479 32.479 0 0 0 167.3 52.8 Q 161.011 48.608 151.484 48.236 A 48.346 48.346 0 0 0 149.6 48.2 Q 131.4 48.2 121.8 60.1 Q 112.2 72 112.2 92.6 L 112.2 102.2 Q 112.2 122.8 121.8 134.7 A 31.109 31.109 0 0 0 141.038 145.856 A 46.966 46.966 0 0 0 149.6 146.6 A 49.648 49.648 0 0 0 157.686 145.98 Q 164.154 144.911 168.9 142 Q 176.4 137.4 181.2 129 L 184.4 131.2 Q 179.4 139.8 171.1 145.1 A 31.522 31.522 0 0 1 161.743 149.033 Q 156.303 150.4 149.6 150.4 A 48.07 48.07 0 0 1 136.387 148.682 A 35.009 35.009 0 0 1 118.6 137.1 A 42.217 42.217 0 0 1 111.277 123.549 Q 109.209 117.426 108.304 109.918 A 104.81 104.81 0 0 1 107.6 97.4 A 101.394 101.394 0 0 1 108.569 82.88 Q 110.866 67.052 118.6 57.7 Q 129.6 44.4 149.6 44.4 A 43.405 43.405 0 0 1 158.967 45.361 A 31.392 31.392 0 0 1 169.8 49.9 Q 178 55.4 182.6 64.4 Z" id="1" vector-effect="non-scaling-stroke"/><path d="M 235.2 148 L 219.8 148 A 8.35 8.35 0 0 1 217.505 147.712 Q 214.931 146.975 214.247 144.348 A 8.545 8.545 0 0 1 214 142.2 L 214 0 L 218.2 0 L 218.2 144.2 L 235.2 144.2 L 235.2 148 Z" id="2" vector-effect="non-scaling-stroke"/><path d="M 297 178.2 L 293 178.2 L 340.6 0 L 344.6 0 L 297 178.2 Z" id="4" vector-effect="non-scaling-stroke"/><path d="M 508.8 12.4 L 458.4 12.4 L 458.4 148 L 454 148 L 454 12.4 L 403.6 12.4 L 403.6 8.4 L 508.8 8.4 L 508.8 12.4 Z" id="6" vector-effect="non-scaling-stroke"/><path d="M 617.4 148 L 565.2 70.6 L 538.2 100.2 L 538.2 148 L 533.8 148 L 533.8 8.4 L 538.2 8.4 L 538.2 93.8 L 538.6 93.8 L 564.6 65.4 L 616.4 8.4 L 622 8.4 L 568.2 67.4 L 622.6 148 L 617.4 148 Z" id="7" vector-effect="non-scaling-stroke"/></g></svg>